<svg width="18" height="18" viewBox="0 0 18 18" fill="none" xmlns="http://www.w3.org/2000/svg">
<path d="M6.94196 11.613C6.40498 12.1746 5.70709 12.5698 4.93679 12.7486C4.16649 12.9274 3.35847 12.8816 2.61518 12.6171C1.87188 12.3527 1.2268 11.8814 0.761722 11.263C0.29664 10.6447 0.032507 9.90709 0.00281162 9.14384C-0.0268838 8.38059 0.179196 7.62603 0.594922 6.97583C1.01065 6.32563 1.6173 5.80907 2.33795 5.49166C3.0586 5.17424 3.86079 5.07027 4.64282 5.19291C5.42485 5.31556 6.15149 5.6593 6.7306 6.18056L10.2217 3.98625C9.94269 3.32801 9.92501 2.59377 10.172 1.92377C10.419 1.25377 10.9134 0.694959 11.5607 0.354066C12.208 0.0131722 12.9629 -0.0859116 13.6812 0.0757383C14.3995 0.237388 15.0309 0.648443 15.4547 1.23039C15.8785 1.81235 16.0651 2.52441 15.9789 3.23059C15.8926 3.93676 15.5395 4.58756 14.9871 5.05868C14.4346 5.52981 13.7214 5.78824 12.9838 5.78462C12.2462 5.78099 11.5359 5.51558 10.9884 5.03905L7.54136 7.20508C7.83473 7.74177 8.00008 8.35237 8.00008 9.00025C8.00072 9.52803 7.8886 10.0503 7.67071 10.5345L12.6933 13.2578C13.165 12.7112 13.8291 12.3513 14.5587 12.2468C15.2883 12.1423 16.0323 12.3005 16.6485 12.6913C17.2647 13.082 17.7101 13.6779 17.8994 14.3651C18.0888 15.0523 18.0089 15.7827 17.6751 16.4167C17.3413 17.0508 16.7768 17.5441 16.0896 17.8024C15.4024 18.0607 14.6406 18.0659 13.9497 17.8171C13.2587 17.5683 12.687 17.0828 12.3439 16.4534C12.0007 15.824 11.91 15.0948 12.0892 14.405L6.94129 11.6136L6.94196 11.613Z" fill="#9E9E9E"/>
</svg>
