<svg width="8" height="15" viewBox="0 0 8 15" fill="none" xmlns="http://www.w3.org/2000/svg">
<path d="M7.90642 5.30209C7.84683 5.19938 7.76191 5.11425 7.66007 5.0551C7.55822 4.99595 7.44297 4.96483 7.32568 4.96481H5.2598L7.65411 1.0476C7.71759 0.943773 7.7526 0.82458 7.75552 0.702369C7.75844 0.580157 7.72916 0.459376 7.67072 0.352542C7.61233 0.245666 7.52688 0.156617 7.42324 0.0946281C7.3196 0.0326394 7.20153 -3.24927e-05 7.08129 2.42484e-08H2.02323C1.86601 -1.81077e-06 1.71373 0.0558457 1.59271 0.157889C1.47169 0.259933 1.38954 0.40176 1.36046 0.558855L0.0116418 7.84189C-0.00669886 7.94093 -0.00333521 8.04287 0.0214938 8.14045C0.0463229 8.23802 0.0920061 8.32882 0.15529 8.4064C0.218552 8.48403 0.297874 8.54651 0.387605 8.5894C0.477335 8.63229 0.575264 8.65453 0.674416 8.65454H2.59454L1.95014 14.2343C1.93192 14.3922 1.96819 14.5516 2.05275 14.6852C2.1373 14.8189 2.2649 14.9186 2.41372 14.9672C2.56254 15.0158 2.72334 15.0103 2.86864 14.9517C3.01393 14.8931 3.13469 14.785 3.21027 14.6459L7.91578 5.98215C7.97257 5.87777 8.00157 5.76013 7.99993 5.64086C7.99829 5.52159 7.96606 5.40482 7.90642 5.30209Z" fill="#0F0F0F"/>
</svg>
