<svg width="24" height="24" viewBox="0 0 24 24" fill="none" xmlns="http://www.w3.org/2000/svg">
<path d="M24 12C24 9.68521 23.3305 7.41982 22.0722 5.4769C20.8139 3.53399 19.0205 1.99647 16.9082 1.04968C14.7959 0.10289 12.4548 -0.212755 10.1672 0.140791C7.87957 0.494336 5.74302 1.50198 4.01508 3.04227C2.28714 4.58255 1.04157 6.58973 0.428508 8.82186C-0.184552 11.054 -0.138936 13.4158 0.559858 15.6226C1.25865 17.8294 2.5808 19.787 4.36693 21.2594C6.15305 22.7318 8.32692 23.6562 10.6265 23.9211L10.9123 21.4409C9.09113 21.231 7.36955 20.499 5.95504 19.3329C4.54053 18.1668 3.49346 16.6165 2.94006 14.8689C2.38665 13.1212 2.35053 11.2508 2.83604 9.48309C3.32154 7.71537 4.30796 6.1258 5.67639 4.90598C7.04482 3.68616 8.73685 2.88817 10.5485 2.60818C12.3602 2.32819 14.2142 2.57816 15.887 3.32797C17.5598 4.07777 18.9801 5.2954 19.9766 6.83408C20.9731 8.37276 21.5033 10.1668 21.5033 12H24Z" fill="#0F0F0F"/>
</svg>
