<svg width="15" height="15" viewBox="0 0 15 15" fill="none" xmlns="http://www.w3.org/2000/svg">
<g clip-path="url(#clip0_623_164)">
<path d="M14.9376 7.49985C14.9376 11.6419 11.5961 14.9997 7.47415 14.9997C3.35218 14.9997 0.0107422 11.6419 0.0107422 7.49985C0.0107422 3.35776 3.35218 0 7.47415 0C11.5961 0 14.9376 3.35776 14.9376 7.49985Z" fill="#F7931A"/>
<path d="M9.28666 9.69165C9.25622 9.7955 9.20556 9.89224 9.13764 9.97627C9.06971 10.0603 8.98586 10.1299 8.89095 10.1812C8.79635 10.233 8.69245 10.2654 8.58529 10.2766C8.47812 10.2878 8.36981 10.2775 8.26664 10.2463L6.16486 9.61725L6.63312 8.03756L8.73474 8.66665H8.73481C9.16814 8.79632 9.41578 9.25614 9.28666 9.69165ZM9.99553 6.45434C10.047 6.54944 10.0793 6.65386 10.0904 6.76155C10.1015 6.86925 10.0912 6.97809 10.0602 7.08178C9.93112 7.51715 9.47332 7.76584 9.04022 7.63639H9.04014L6.93845 7.00738L7.40655 5.42769L9.50832 6.0567C9.61166 6.08732 9.70793 6.13823 9.79156 6.20648C9.8752 6.27474 9.94452 6.35898 9.99553 6.45434ZM10.9364 5.94285C10.6961 5.49669 10.2974 5.17119 9.81365 5.02645L9.53556 4.94327L9.92485 3.62975L8.92603 3.33081L8.53674 4.64433L7.68397 4.38911L8.07333 3.07559L7.83406 3.00396L6.86471 2.71387L6.48945 3.97999L5.30814 3.62645L4.97475 4.75143L6.15606 5.10504L4.94243 9.19981L3.76112 8.84627L3.42773 9.97132L4.60897 10.3248L4.2923 11.3934L4.5315 11.4651L5.50085 11.7552L5.83162 10.6391L6.68641 10.8949L6.35563 12.0111L7.35043 12.3088L7.6812 11.1927L7.96123 11.2764C8.13713 11.3293 8.31972 11.3562 8.5033 11.3563C8.81303 11.3563 9.11985 11.279 9.39995 11.1267C9.84395 10.8853 10.1678 10.4846 10.3119 9.9984C10.4634 9.48698 10.3886 8.96162 10.1476 8.52918C10.5851 8.29976 10.9338 7.90024 11.0854 7.3886C11.2295 6.90238 11.1765 6.38894 10.9364 5.94285Z" fill="white"/>
</g>
<defs>
<clipPath id="clip0_623_164">
<rect width="15" height="15" fill="white"/>
</clipPath>
</defs>
</svg>
