<svg width="214" height="80" viewBox="0 0 214 80" fill="none" xmlns="http://www.w3.org/2000/svg">
<path d="M100.551 34.4V36H85V20H100.551V21.6H102.106V26.4H100.551V29.6H102.106V34.4H100.551ZM91.2204 29.6V32.8H95.8857V29.6H91.2204ZM91.2204 23.2V26.4H95.8857V23.2H91.2204Z" fill="#0F0F0F"/>
<path d="M109.869 29.6V36H103.649V21.6H105.204V20H119.2V21.6H120.755V36H114.535V29.6H109.869ZM109.869 23.2V26.4H114.535V23.2H109.869Z" fill="#0F0F0F"/>
<path d="M128.518 28V36H122.298V20H128.518V21.6H130.073V23.2H131.629V24.8H133.184V20H139.404V36H133.184V31.2H131.629V29.6H130.073V28H128.518Z" fill="#0F0F0F"/>
<path d="M147.167 29.6V36H140.947V21.6H142.502V20H156.498V21.6H158.053V36H151.833V29.6H147.167ZM147.167 23.2V26.4H151.833V23.2H147.167Z" fill="#0F0F0F"/>
<path d="M165.816 28V36H159.596V20H165.816V21.6H167.371V23.2H168.927V24.8H170.482V20H176.702V36H170.482V31.2H168.927V29.6H167.371V28H165.816Z" fill="#0F0F0F"/>
<path d="M184.465 29.6V36H178.245V21.6H179.8V20H193.796V21.6H195.351V36H189.131V29.6H184.465ZM184.465 23.2V26.4H189.131V23.2H184.465Z" fill="#0F0F0F"/>
<path d="M196.894 36V32.8H207.78V29.6H198.449V28H196.894V21.6H198.449V20H214V23.2H203.114V26.4H212.445V28H214V34.4H212.445V36H196.894Z" fill="#0F0F0F"/>
<path d="M91.2476 57.5V65H85V50H91.2476V51.5H92.8095V53H94.3714V54.5H95.9333V53H97.4952V51.5H99.0571V50H105.305V65H99.0571V57.5H97.4952V59H95.9333V60.5H94.3714V59H92.8095V57.5H91.2476Z" fill="#0F0F0F"/>
<path d="M113.12 59V65H106.873V51.5H108.435V50H122.492V51.5H124.053V65H117.806V59H113.12ZM113.12 53V56H117.806V53H113.12Z" fill="#0F0F0F"/>
<path d="M131.851 59V65H125.603V50H141.222V51.5H142.784V56H141.222V59H142.784V65H136.536V59H131.851ZM131.851 53V56H136.536V53H131.851Z" fill="#0F0F0F"/>
<path d="M150.581 60.5V65H144.334V50H150.581V54.5H152.143V53H153.705V51.5H155.267V50H163.076V53H161.515V54.5H159.953V56H158.391V59H159.953V60.5H161.515V62H163.076V65H155.267V63.5H153.705V62H152.143V60.5H150.581Z" fill="#0F0F0F"/>
<path d="M166.212 65V63.5H164.651V51.5H166.212V50H181.831V53H170.898V56H175.584V59H170.898V62H181.831V65H166.212Z" fill="#0F0F0F"/>
<path d="M194.314 53V65H188.067V53H183.381V50H199V53H194.314Z" fill="#0F0F0F"/>
<path d="M44.5291 28.6978L42.1595 26.6339L32.0886 25.8477L26.5595 31.0565V36.1671L23.6962 38.5258V55.5283L22.0177 58.0835L21.0304 61.2285L18.8582 63.2924L18.4633 65.8477L14.8101 66.3391L13.1316 63.2924L11.9468 61.5233L10.6633 56.2162L7.10886 55.5283L1.48101 60.8354L0.493671 70.0737L8.58987 78.4275L33.8658 79.0172L38.0127 74.2015L49.5646 61.2285L48.0835 31.0565L44.5291 28.6978Z" fill="#F5D802"/>
<path d="M42.7519 29.9754V27.3219L47.7873 25.4545L54.1063 30.7617V35.6757L56.7722 38.5258V58.0835L59.2405 60.7371L61.4127 62.8993L63.2886 63.5872L66.1519 61.7199L66.7443 58.5749L68.8177 56.2162L71.3848 55.6265L76.6177 61.1302V68.6978L66.7443 78.3292H54.0076L51.243 76.4619L48.8734 78.3292H39.0987L36.7291 76.4619L34.9519 77.3464H32.8785V74.4963H35.8405V71.8428H38.2101V69.5823H40.481V67.1253H42.7519V62.5061H45.319V57.5921H47.7873V34.7912H45.319V29.9754H42.7519Z" fill="#F4B30D"/>
<path d="M36.038 4.32432H26.5595L23.1038 6.19165V8.74693L25.4734 10.516L29.9165 12.4816L30.6076 13.0713L31.2 14.0541L33.076 15.5283L34.557 17.0025L35.8405 18.4767L36.7291 22.8993L37.1241 27.3219H42.8506V15.3317L38.6051 12.8747V9.33661L37.7165 7.56757L36.7291 7.27273L36.038 4.32432Z" fill="#91551F"/>
<path d="M27.6456 2.55528H37.7165V5.11056H27.6456V2.55528Z" fill="#C8854E"/>
<path d="M27.6456 0H37.7165V2.55528H27.6456V0Z" fill="#231F20"/>
<path d="M35.1494 5.11056H37.7165V7.66585H35.1494V5.11056Z" fill="#C88652"/>
<path d="M37.7165 7.66585H40.2835V14.9386H37.7165V7.66585Z" fill="#C88652"/>
<path d="M25.0785 2.55528H27.6456V5.11056H25.0785V2.55528Z" fill="#231F20"/>
<path d="M30.2127 12.7764H32.7797V15.3317H30.2127V12.7764Z" fill="#231F20"/>
<path d="M32.7797 15.3317H35.3468V17.887H32.7797V15.3317Z" fill="#231F20"/>
<path d="M32.7797 22.4079H35.3468V24.9631H32.7797V22.4079Z" fill="#231F20"/>
<path d="M45.4177 22.4079H47.9848V24.9631H45.4177V22.4079Z" fill="#231F20"/>
<path d="M47.9848 24.9631H50.5519V27.5184H47.9848V24.9631Z" fill="#231F20"/>
<path d="M50.5519 27.5184H53.119V30.0737H50.5519V27.5184Z" fill="#231F20"/>
<path d="M58.2532 59.7543H60.8203V62.3096H58.2532V59.7543Z" fill="#231F20"/>
<path d="M67.9291 54.6437H72.8658V57.199H67.9291V54.6437Z" fill="#231F20"/>
<path d="M60.8203 62.3096H65.362V64.8649H60.8203V62.3096Z" fill="#231F20"/>
<path d="M53.119 30.0737H55.6861V37.3464H53.119V30.0737Z" fill="#231F20"/>
<path d="M25.0785 30.0737H27.6456V37.3464H25.0785V30.0737Z" fill="#231F20"/>
<path d="M19.9443 57.3956H22.5114V62.3096H19.9443V57.3956Z" fill="#231F20"/>
<path d="M0 59.9509H2.56709V72.3342H0V59.9509Z" fill="#231F20"/>
<path d="M17.3772 62.3096H19.9443V67.2236H17.3772V62.3096Z" fill="#231F20"/>
<path d="M12.4405 62.3096H15.0076V67.2236H12.4405V62.3096Z" fill="#231F20"/>
<path d="M9.87342 54.8403H12.4405V62.3096H9.87342V54.8403Z" fill="#231F20"/>
<path d="M55.6861 37.3464H58.2532V59.7543H55.6861V37.3464Z" fill="#231F20"/>
<path d="M22.5114 37.3464H25.0785V57.3956H22.5114V37.3464Z" fill="#231F20"/>
<path d="M30.2127 24.9631H32.7797V27.5184H30.2127V24.9631Z" fill="#231F20"/>
<path d="M27.6456 27.5184H30.2127V30.0737H27.6456V27.5184Z" fill="#231F20"/>
<path d="M15.0076 64.6683H17.5747V67.2236H15.0076V64.6683Z" fill="#231F20"/>
<path d="M35.3468 74.8894H37.9139V77.4447H35.3468V74.8894Z" fill="#231F20"/>
<path d="M50.157 74.8894H52.7241V77.4447H50.157V74.8894Z" fill="#F6B30C"/>
<path d="M67.7316 74.8894H70.2987V77.4447H67.7316V74.8894Z" fill="#231F20"/>
<path d="M70.2987 72.3342H72.8658V74.8894H70.2987V72.3342Z" fill="#231F20"/>
<path d="M72.8658 69.7789H75.4329V72.3342H72.8658V69.7789Z" fill="#231F20"/>
<path d="M72.8658 57.199H75.4329V59.7543H72.8658V57.199Z" fill="#231F20"/>
<path d="M75.4329 59.7543H78V69.7789H75.4329V59.7543Z" fill="#231F20"/>
<path d="M65.362 57.199H67.9291V62.3096H65.362V57.199Z" fill="#231F20"/>
<path d="M2.56709 57.3956H5.13418V59.9509H2.56709V57.3956Z" fill="#231F20"/>
<path d="M2.56709 72.3342H5.13418V74.8894H2.56709V72.3342Z" fill="#231F20"/>
<path d="M5.13418 74.8894H7.70127V77.4447H5.13418V74.8894Z" fill="#231F20"/>
<path d="M7.70127 77.4447H35.3468V80H7.70127V77.4447Z" fill="#231F20"/>
<path d="M52.7241 77.4447H67.7316V80H52.7241V77.4447Z" fill="#231F20"/>
<path d="M5.13418 54.8403H9.87342V57.3956H5.13418V54.8403Z" fill="#231F20"/>
<path d="M40.2835 15.1351H42.8506V17.6904H40.2835V15.1351Z" fill="#C88652"/>
<path d="M37.9139 22.4079H40.481V24.9631H37.9139V22.4079Z" fill="#C88652"/>
<path d="M35.3468 24.9631H37.9139V27.5184H35.3468V24.9631Z" fill="#C88652"/>
<path d="M22.5114 57.3956H25.0785V59.9509H22.5114V57.3956Z" fill="#D1630A"/>
<path d="M72.8658 67.2236H75.4329V69.7789H72.8658V67.2236Z" fill="#D1630A"/>
<path d="M70.2987 69.7789H72.8658V72.3342H70.2987V69.7789Z" fill="#D1630A"/>
<path d="M67.7316 72.3342H70.2987V74.8894H67.7316V72.3342Z" fill="#D1630A"/>
<path d="M62.5975 74.8894H67.7316V77.4447H62.5975V74.8894Z" fill="#D1630A"/>
<path d="M9.87342 62.3096H12.4405V64.8649H9.87342V62.3096Z" fill="#DE8138"/>
<path d="M70.2987 57.199H72.8658V59.7543H70.2987V57.199Z" fill="#DE8138"/>
<path d="M12.4405 69.7789H15.0076V72.3342H12.4405V69.7789Z" fill="#DE8138"/>
<path d="M24.881 74.8894H27.4481V77.4447H24.881V74.8894Z" fill="#F4B10E"/>
<path d="M2.56709 69.7789H5.13418V72.3342H2.56709V69.7789Z" fill="#DE8138"/>
<path d="M14.8101 72.1376H19.7468V74.6929H14.8101V72.1376Z" fill="#F2B20B"/>
<path d="M19.9443 74.8894H24.881V77.4447H19.9443V74.8894Z" fill="#E15400"/>
<path d="M7.70127 74.8894H12.638V77.4447H7.70127V74.8894Z" fill="#E37C40"/>
<path d="M5.13418 57.3956H9.87342V59.9509H5.13418V57.3956Z" fill="#E17C35"/>
<path d="M19.9443 62.3096H22.5114V64.8649H19.9443V62.3096Z" fill="#D1630A"/>
<path d="M2.56709 59.9509H5.13418V62.5061H2.56709V59.9509Z" fill="#D1630A"/>
<path d="M22.5114 62.5061H25.0785V67.4201H22.5114V62.5061Z" fill="#F3F17E"/>
<path d="M42.8506 24.9631H45.4177V27.5184H42.8506V24.9631Z" fill="#E05301"/>
<path d="M45.4177 24.9631H47.9848V27.5184H45.4177V24.9631Z" fill="#E05301"/>
<path d="M47.9848 27.5184H50.5519V30.0737H47.9848V27.5184Z" fill="#E05301"/>
<path d="M50.5519 30.0737H53.119V34.9877H50.5519V30.0737Z" fill="#E05301"/>
<path d="M53.119 37.3464H55.6861V42.2604H53.119V37.3464Z" fill="#E05301"/>
<path d="M67.9291 57.199H70.4962V62.3096H67.9291V57.199Z" fill="#E05301"/>
<path d="M67.9291 57.199H70.4962V62.3096H67.9291V57.199Z" fill="#E05301"/>
<path d="M65.362 62.3096H67.9291V64.8649H65.362V62.3096Z" fill="#E05301"/>
<path d="M72.8658 59.7543H75.4329V62.3096H72.8658V59.7543Z" fill="#E05301"/>
<path d="M32.7797 24.9631H35.3468V27.5184H32.7797V24.9631Z" fill="#C88652"/>
<path d="M37.7165 2.55528H40.2835V7.66585H37.7165V2.55528Z" fill="#231F20"/>
<path d="M40.2835 7.66585H42.8506V15.1351H40.2835V7.66585Z" fill="#231F20"/>
<path d="M42.8506 15.1351H45.4177V24.9631H42.8506V15.1351Z" fill="#231F20"/>
<path d="M35.3468 17.887H37.9139V24.9631H35.3468V17.887Z" fill="#231F20"/>
<path d="M22.5114 5.11056H25.0785V10.2211H22.5114V5.11056Z" fill="#231F20"/>
<path d="M30.2127 10.2211V12.7764H25.0785V10.2211H30.2127Z" fill="#231F20"/>
<path d="M25.0785 5.11056H27.6456V7.66585H25.0785V5.11056Z" fill="#C4834D"/>
<path d="M49.2684 74.2015L51.4405 75.8722L50.5519 77.1499L49.3671 78.0344L39.4937 78.1327V75.3808L41.7646 72.9238L44.4304 70.172L45.0228 69.6806L46.8987 69.3857L48.281 70.172L49.2684 74.2015Z" fill="#DF5600"/>
<path d="M45.0228 67.2236H47.5899V69.7789H45.0228V67.2236Z" fill="#8E6914"/>
<path d="M42.4557 69.7789H45.0228V72.3342H42.4557V69.7789Z" fill="#8E6914"/>
<path d="M39.8886 72.3342H42.4557V74.8894H39.8886V72.3342Z" fill="#8E6914"/>
<path d="M37.9139 74.8894H40.0861V77.4447H37.9139V74.8894Z" fill="#8E6914"/>
<path d="M47.5899 69.7789H50.157V74.8894H47.5899V69.7789Z" fill="#8E6914"/>
<path d="M50.157 74.8894H52.7241V77.4447H50.157V74.8894Z" fill="#1F1F1F"/>
<path d="M37.9139 77.4447H50.157V80H37.9139V77.4447Z" fill="#231F20"/>
<path d="M32.7797 24.9631H35.3468V27.5184H32.7797V24.9631Z" fill="#E05301"/>
<path d="M30.2127 27.5184H32.7797V30.0737H30.2127V27.5184Z" fill="#DF8135"/>
<path d="M25.0785 59.9509H27.6456V62.5061H25.0785V59.9509Z" fill="#F3F17E"/>
<path d="M17.3772 67.2236H19.9443V69.7789H17.3772V67.2236Z" fill="#F3F17E"/>
<path d="M30.2127 30.0737H32.7797V32.629H30.2127V30.0737Z" fill="#FAD605"/>
<path d="M32.7797 30.0737H35.3468V32.629H32.7797V30.0737Z" fill="#F5F5F6"/>
<path d="M27.6456 30.0737H30.2127V32.629H27.6456V30.0737Z" fill="#E05301"/>
<path d="M25.0785 37.3464H27.6456V39.9017H25.0785V37.3464Z" fill="#E05301"/>
<path d="M7.5038 64.6683V59.8526H5.03544V64.6683H2.56709V67.3219H5.03544V72.2359H7.5038V74.6929H12.5392V77.2482H19.8456V74.6929H14.9089V72.2359H12.5392V69.6806H10.0709V64.6683H7.5038Z" fill="#F2F574"/>
<path d="M32.7797 33.2187H35.3468V39.9017H32.7797V33.2187Z" fill="#F5F5F6"/>
<path d="M60.8203 69.7789V64.7666H67.8304V62.3096H70.4962V67.3219H67.8304V69.7789H60.8203Z" fill="#F5F579"/>
<path d="M63.1899 49.7592V40.2948H60.7133V42.683H20.7342V44.9828H23.1223V49.7592H25.422V52.059H27.8986V54.4472H37.2742V52.059H39.6623V49.7592H42.0505V44.9828H44.4386V49.7592H46.6498V52.059H49.038V54.4472H58.4136V52.059H60.7133V49.7592H63.1899Z" fill="#3C3C3C"/>
<path d="M49.2149 44.8943H46.9152V47.1941H49.2149V44.8943Z" fill="white"/>
<path d="M27.6332 44.8943H25.3335V47.1941H27.6332V44.8943Z" fill="white"/>
<path d="M51.5146 47.1941H49.2149V49.4939H51.5146V47.1941Z" fill="white"/>
<path d="M29.9329 47.1941H27.6332V49.4939H29.9329V47.1941Z" fill="white"/>
<path d="M53.8142 49.4939H51.5146V51.7936H53.8142V49.4939Z" fill="white"/>
<path d="M32.2326 49.4939H29.9329V51.7936H32.2326V49.4939Z" fill="white"/>
<path d="M206 54H211V60H206V54Z" fill="#F5D802"/>
</svg>
