<svg width="206" height="291" viewBox="0 0 206 291" fill="none" xmlns="http://www.w3.org/2000/svg">
<path d="M35 243H43V263H67V243H75V291H67V271H39V267H35V243Z" fill="#929292"/>
<path d="M82.9688 247H86.9688V243H118.969V247H122.969V287H118.969V291H86.9688V287H82.9688V247ZM90.9688 283H114.969V251H90.9688V283Z" fill="#929292"/>
<path d="M130.938 243H138.938V263H162.938V243H170.938V291H162.938V271H134.938V267H130.938V243Z" fill="#929292"/>
<path d="M117.603 75.6904L111.344 70.2469L84.7468 68.1732L70.1443 81.9115V95.3907L62.5823 101.612V146.456L58.1494 153.195L55.5418 161.49L49.8051 166.934L48.762 173.673L39.1139 174.969L34.681 166.934L31.5519 162.268L28.162 148.27L18.7747 146.456L3.91139 160.453L1.3038 184.819L22.6861 206.853L89.4405 208.408L100.392 195.706L130.901 161.49L126.99 81.9115L117.603 75.6904Z" fill="#363636"/>
<path d="M112.909 79.0602V72.0614L126.208 67.1364L142.896 81.1339V94.0946L149.937 101.612V153.195L156.456 160.194L162.192 165.897L167.147 167.711L174.709 162.786L176.273 154.491L181.749 148.27L188.529 146.715L202.349 161.231V181.19L176.273 206.593H142.635L135.334 201.668L129.076 206.593H103.261L97.0025 201.668L92.3089 204.001H86.8329V196.484H94.6557V189.485H100.914V183.523H106.911V177.043H112.909V164.86H119.689V151.899H126.208V91.7617H119.689V79.0602H112.909Z" fill="#363636"/>
<path d="M95.1772 11.4054H70.1443L61.0177 16.3305V23.07L67.2759 27.7359L79.0101 32.9201L80.8354 34.4754L82.4 37.0676L87.3544 40.9558L91.2658 44.844L94.6557 48.7322L97.0025 60.3968L98.0456 72.0614H113.17V40.4373L101.957 33.957V24.6253L99.6101 19.9595L97.0025 19.1818L95.1772 11.4054Z" fill="#363636"/>
<path d="M73.0127 6.73956H99.6101V13.4791H73.0127V6.73956Z" fill="#363636"/>
<path d="M73.0127 0H99.6101V6.73956H73.0127V0Z" fill="#363636"/>
<path d="M92.8304 13.4791H99.6101V20.2187H92.8304V13.4791Z" fill="#363636"/>
<path d="M99.6101 20.2187H106.39V39.4005H99.6101V20.2187Z" fill="#363636"/>
<path d="M66.2329 6.73956H73.0127V13.4791H66.2329V6.73956Z" fill="#363636"/>
<path d="M79.7924 33.6978H86.5722V40.4373H79.7924V33.6978Z" fill="#363636"/>
<path d="M86.5722 40.4373H93.3519V47.1769H86.5722V40.4373Z" fill="#363636"/>
<path d="M86.5722 59.1007H93.3519V65.8403H86.5722V59.1007Z" fill="#363636"/>
<path d="M119.949 59.1007H126.729V65.8403H119.949V59.1007Z" fill="#363636"/>
<path d="M126.729 65.8403H133.509V72.5799H126.729V65.8403Z" fill="#363636"/>
<path d="M133.509 72.5799H140.289V79.3194H133.509V72.5799Z" fill="#363636"/>
<path d="M153.848 157.602H160.628V164.342H153.848V157.602Z" fill="#363636"/>
<path d="M179.403 144.123H192.441V150.862H179.403V144.123Z" fill="#363636"/>
<path d="M160.628 164.342H172.623V171.081H160.628V164.342Z" fill="#363636"/>
<path d="M140.289 79.3194H147.068V98.5012H140.289V79.3194Z" fill="#363636"/>
<path d="M66.2329 79.3194H73.0127V98.5012H66.2329V79.3194Z" fill="#363636"/>
<path d="M52.6734 151.381H59.4532V164.342H52.6734V151.381Z" fill="#363636"/>
<path d="M0 158.12H6.77975V190.781H0V158.12Z" fill="#363636"/>
<path d="M45.8937 164.342H52.6734V177.302H45.8937V164.342Z" fill="#363636"/>
<path d="M32.8557 164.342H39.6354V177.302H32.8557V164.342Z" fill="#363636"/>
<path d="M26.0759 144.641H32.8557V164.342H26.0759V144.641Z" fill="#363636"/>
<path d="M147.068 98.5012H153.848V157.602H147.068V98.5012Z" fill="#363636"/>
<path d="M59.4532 98.5012H66.2329V151.381H59.4532V98.5012Z" fill="#363636"/>
<path d="M79.7924 65.8403H86.5722V72.5799H79.7924V65.8403Z" fill="#363636"/>
<path d="M73.0127 72.5799H79.7924V79.3194H73.0127V72.5799Z" fill="#363636"/>
<path d="M39.6354 170.563H46.4152V177.302H39.6354V170.563Z" fill="#363636"/>
<path d="M93.3519 197.521H100.132V204.26H93.3519V197.521Z" fill="#363636"/>
<path d="M132.466 197.521H139.246V204.26H132.466V197.521Z" fill="#363636"/>
<path d="M178.881 197.521H185.661V204.26H178.881V197.521Z" fill="#363636"/>
<path d="M185.661 190.781H192.441V197.521H185.661V190.781Z" fill="#363636"/>
<path d="M192.441 184.042H199.22V190.781H192.441V184.042Z" fill="#363636"/>
<path d="M192.441 150.862H199.22V157.602H192.441V150.862Z" fill="#363636"/>
<path d="M199.22 157.602H206V184.042H199.22V157.602Z" fill="#363636"/>
<path d="M172.623 150.862H179.403V164.342H172.623V150.862Z" fill="#363636"/>
<path d="M6.77975 151.381H13.5595V158.12H6.77975V151.381Z" fill="#363636"/>
<path d="M6.77975 190.781H13.5595V197.521H6.77975V190.781Z" fill="#363636"/>
<path d="M13.5595 197.521H20.3392V204.26H13.5595V197.521Z" fill="#363636"/>
<path d="M20.3392 204.26H93.3519V211H20.3392V204.26Z" fill="#363636"/>
<path d="M139.246 204.26H178.881V211H139.246V204.26Z" fill="#363636"/>
<path d="M13.5595 144.641H26.0759V151.381H13.5595V144.641Z" fill="#363636"/>
<path d="M106.39 39.9189H113.17V46.6585H106.39V39.9189Z" fill="#363636"/>
<path d="M100.132 59.1007H106.911V65.8403H100.132V59.1007Z" fill="#363636"/>
<path d="M93.3519 65.8403H100.132V72.5799H93.3519V65.8403Z" fill="#363636"/>
<path d="M59.4532 151.381H66.2329V158.12H59.4532V151.381Z" fill="#363636"/>
<path d="M192.441 177.302H199.22V184.042H192.441V177.302Z" fill="#363636"/>
<path d="M185.661 184.042H192.441V190.781H185.661V184.042Z" fill="#363636"/>
<path d="M178.881 190.781H185.661V197.521H178.881V190.781Z" fill="#363636"/>
<path d="M165.322 197.521H178.881V204.26H165.322V197.521Z" fill="#363636"/>
<path d="M26.0759 164.342H32.8557V171.081H26.0759V164.342Z" fill="#363636"/>
<path d="M185.661 150.862H192.441V157.602H185.661V150.862Z" fill="#363636"/>
<path d="M32.8557 184.042H39.6354V190.781H32.8557V184.042Z" fill="#363636"/>
<path d="M65.7114 197.521H72.4911V204.26H65.7114V197.521Z" fill="#363636"/>
<path d="M6.77975 184.042H13.5595V190.781H6.77975V184.042Z" fill="#363636"/>
<path d="M39.1139 190.263H52.1519V197.002H39.1139V190.263Z" fill="#363636"/>
<path d="M52.6734 197.521H65.7114V204.26H52.6734V197.521Z" fill="#363636"/>
<path d="M20.3392 197.521H33.3772V204.26H20.3392V197.521Z" fill="#363636"/>
<path d="M13.5595 151.381H26.0759V158.12H13.5595V151.381Z" fill="#363636"/>
<path d="M52.6734 164.342H59.4532V171.081H52.6734V164.342Z" fill="#363636"/>
<path d="M6.77975 158.12H13.5595V164.86H6.77975V158.12Z" fill="#363636"/>
<path d="M59.4532 164.86H66.2329V177.821H59.4532V164.86Z" fill="#363636"/>
<path d="M113.17 65.8403H119.949V72.5799H113.17V65.8403Z" fill="#363636"/>
<path d="M119.949 65.8403H126.729V72.5799H119.949V65.8403Z" fill="#363636"/>
<path d="M126.729 72.5799H133.509V79.3194H126.729V72.5799Z" fill="#363636"/>
<path d="M133.509 79.3194H140.289V92.2801H133.509V79.3194Z" fill="#363636"/>
<path d="M140.289 98.5012H147.068V111.462H140.289V98.5012Z" fill="#363636"/>
<path d="M179.403 150.862H186.182V164.342H179.403V150.862Z" fill="#363636"/>
<path d="M179.403 150.862H186.182V164.342H179.403V150.862Z" fill="#363636"/>
<path d="M172.623 164.342H179.403V171.081H172.623V164.342Z" fill="#363636"/>
<path d="M192.441 157.602H199.22V164.342H192.441V157.602Z" fill="#363636"/>
<path d="M86.5722 65.8403H93.3519V72.5799H86.5722V65.8403Z" fill="#363636"/>
<path d="M99.6101 6.73956H106.39V20.2187H99.6101V6.73956Z" fill="#363636"/>
<path d="M106.39 20.2187H113.17V39.9189H106.39V20.2187Z" fill="#363636"/>
<path d="M113.17 39.9189H119.949V65.8403H113.17V39.9189Z" fill="#363636"/>
<path d="M93.3519 47.1769H100.132V65.8403H93.3519V47.1769Z" fill="#363636"/>
<path d="M59.4532 13.4791H66.2329V26.9582H59.4532V13.4791Z" fill="#363636"/>
<path d="M79.7924 26.9582V33.6978H66.2329V26.9582H79.7924Z" fill="#363636"/>
<path d="M66.2329 13.4791H73.0127V20.2187H66.2329V13.4791Z" fill="#363636"/>
<path d="M130.119 195.706L135.856 200.113L133.509 203.483L130.38 205.816L104.304 206.075V198.817L110.301 192.337L117.342 185.079L118.906 183.783L123.861 183.005L127.511 185.079L130.119 195.706Z" fill="#363636"/>
<path d="M118.906 177.302H125.686V184.042H118.906V177.302Z" fill="#363636"/>
<path d="M112.127 184.042H118.906V190.781H112.127V184.042Z" fill="#363636"/>
<path d="M105.347 190.781H112.127V197.521H105.347V190.781Z" fill="#363636"/>
<path d="M100.132 197.521H105.868V204.26H100.132V197.521Z" fill="#363636"/>
<path d="M125.686 184.042H132.466V197.521H125.686V184.042Z" fill="#363636"/>
<path d="M132.466 197.521H139.246V204.26H132.466V197.521Z" fill="#363636"/>
<path d="M100.132 204.26H132.466V211H100.132V204.26Z" fill="#363636"/>
<path d="M86.5722 65.8403H93.3519V72.5799H86.5722V65.8403Z" fill="#363636"/>
<path d="M79.7924 72.5799H86.5722V79.3194H79.7924V72.5799Z" fill="#363636"/>
<path d="M66.2329 158.12H73.0127V164.86H66.2329V158.12Z" fill="#363636"/>
<path d="M45.8937 177.302H52.6734V184.042H45.8937V177.302Z" fill="#363636"/>
<path d="M79.7924 79.3194H86.5722V86.059H79.7924V79.3194Z" fill="#363636"/>
<path d="M86.5722 79.3194H93.3519V86.059H86.5722V79.3194Z" fill="#363636"/>
<path d="M73.0127 79.3194H79.7924V86.059H73.0127V79.3194Z" fill="#363636"/>
<path d="M66.2329 98.5012H73.0127V105.241H66.2329V98.5012Z" fill="#363636"/>
<path d="M19.8177 170.563V157.861H13.2987V170.563H6.77975V177.561H13.2987V190.522H19.8177V197.002H33.1165V203.742H52.4127V197.002H39.3747V190.522H33.1165V183.783H26.5975V170.563H19.8177Z" fill="#363636"/>
<path d="M86.5722 87.6143H93.3519V105.241H86.5722V87.6143Z" fill="#363636"/>
<path d="M160.628 184.042V170.822H179.142V164.342H186.182V177.561H179.142V184.042H160.628Z" fill="#363636"/>
<path d="M166.886 131.24V106.278H160.345V112.577H54.7595V118.642H61.0666V131.24H67.1401V137.306H73.6809V143.604H98.4421V137.306H104.749V131.24H111.056V118.642H117.364V131.24H123.203V137.306H129.511V143.604H154.272V137.306H160.345V131.24H166.886Z" fill="#363636"/>
<path d="M129.978 118.409H123.904V124.474H129.978V118.409Z" fill="#363636"/>
<path d="M72.9801 118.409H66.9065V124.474H72.9801V118.409Z" fill="#363636"/>
<path d="M136.051 124.474H129.978V130.54H136.051V124.474Z" fill="#363636"/>
<path d="M79.0536 124.474H72.9801V130.54H79.0536V124.474Z" fill="#363636"/>
<path d="M142.125 130.54H136.051V136.606H142.125V130.54Z" fill="#363636"/>
<path d="M85.1271 130.54H79.0536V136.606H85.1271V130.54Z" fill="#363636"/>
<path d="M80.2485 107.86L108.356 135.968L101.968 142.356L73.8604 114.248L80.2485 107.86Z" fill="#929292"/>
<path d="M108.356 114.248L80.2485 142.356L73.8604 135.968L101.968 107.86L108.356 114.248Z" fill="#929292"/>
<path d="M129.032 107.86L157.14 135.968L150.751 142.356L122.644 114.248L129.032 107.86Z" fill="#929292"/>
<path d="M157.14 114.248L129.032 142.356L122.644 135.968L150.751 107.86L157.14 114.248Z" fill="#929292"/>
</svg>
