<svg width="15" height="15" viewBox="0 0 15 15" fill="none" xmlns="http://www.w3.org/2000/svg">
<path d="M15 8.64339C15 8.15262 14.8073 7.68494 14.4735 7.36161L9.24626 2.00351C8.06387 0.84009 7.21231 0 5.75086 0H3.37457C0.486191 0 0 1.06527 0 3.45563V6.04518C0 7.38182 0.258918 7.77732 1.27445 8.76176L7.16916 14.5211C7.82796 15.1591 9.07653 15.1591 9.73533 14.524L14.4793 9.91652C14.8101 9.59607 15 9.13128 15 8.64339ZM5.79689 4.31881C5.79689 5.27149 5.02014 6.04807 4.06502 6.04807C3.1099 6.04807 2.33314 5.27149 2.33314 4.31881C2.33314 3.36613 3.1099 2.58955 4.06502 2.58955C5.02014 2.58955 5.79689 3.36613 5.79689 4.31881Z" fill="#0F0F0F"/>
</svg>
