<svg width="100" height="100" viewBox="0 0 100 100" fill="none" xmlns="http://www.w3.org/2000/svg">
<path d="M28.5714 0H71.4286V7.14286H28.5714V0ZM78.5714 7.14286H71.4286V14.2857C71.4286 14.8605 78.5714 14.2857 78.5714 14.2857V7.14286ZM78.5714 21.4286V14.2857L85.7143 14.5413V21.4286H78.5714ZM85.7143 21.4286H92.8571V28.5714H85.7143V21.4286ZM92.8571 28.5714H100V71.4286H92.8571V28.5714ZM85.7143 71.4286H92.8571V78.5714H85.7143V71.4286ZM78.5714 78.5714H85.7143V85.7143H78.5714V78.5714ZM71.4286 85.7143H78.5714V92.8571H71.4286V85.7143ZM28.5714 92.8571H71.4286V100H28.5714V92.8571ZM21.4286 85.7143H28.5714V92.8571H21.4286V85.7143ZM14.2857 78.5714H21.4286V85.7143H14.2857V78.5714ZM7.14286 71.4286C7.14286 71.4286 6.37388 78.5714 7.14286 78.5714H14.2857V71.4286H7.14286ZM0 28.5714H7.14286V71.4286H0V28.5714ZM7.14286 21.4286H14.2857V28.5714H7.14286V21.4286ZM14.2857 14.5413H21.4286V21.4286H14.2857V14.5413ZM21.4286 7.14286H28.5714V14.5413H21.4286V7.14286ZM42.8571 71.4286H57.1429V85.7143H42.8571V71.4286ZM42.8571 64.2857H57.1429V50H64.2857V14.5413L35.7143 14.2857V50H42.8571V64.2857Z" fill="#FF1A51"/>
</svg>
