<svg width="75" height="75" viewBox="0 0 75 75" fill="none" xmlns="http://www.w3.org/2000/svg">
<path d="M75 37.5C75 30.2663 72.9078 23.1869 68.9756 17.1153C65.0434 11.0437 59.4391 6.23896 52.8381 3.28025C46.2372 0.321532 38.9214 -0.664859 31.7725 0.43997C24.6237 1.5448 17.9469 4.69369 12.5471 9.50708C7.14731 14.3205 3.2549 20.5929 1.33909 27.5683C-0.576726 34.5437 -0.434175 41.9244 1.74956 48.8206C3.93329 55.7168 8.06499 61.8343 13.6466 66.4356C19.2283 71.0369 26.0216 73.9256 33.2078 74.7535L34.1008 67.0027C28.4098 66.347 23.0298 64.0593 18.6095 60.4153C14.1891 56.7714 10.9171 51.9267 9.18768 46.4653C7.45829 41.0038 7.34539 35.1588 8.86261 29.6347C10.3798 24.1105 13.4624 19.1431 17.7387 15.3312C22.0151 11.5193 27.3027 9.02552 32.9641 8.15056C38.6256 7.2756 44.4193 8.05676 49.6469 10.3999C54.8745 12.743 59.3128 16.5481 62.4269 21.3565C65.541 26.1649 67.1979 31.7713 67.1979 37.5H75Z" fill="#BEBEBE"/>
</svg>
