<svg width="16" height="16" viewBox="0 0 16 16" fill="none" xmlns="http://www.w3.org/2000/svg">
<path d="M13 9H6V7H13L12 5H14L16 8L14 11H12L13 9ZM13.6581 2.344L12.2432 3.7584C11.6868 3.19998 11.0255 2.75712 10.2972 2.45534C9.56902 2.15356 8.78828 1.99881 8 2C4.6864 2 2 4.6864 2 8C2 11.3136 4.6864 14 8 14C9.61227 14 11.1211 13.3627 12.24 12.2453L13.6528 13.6608C12.9109 14.4035 12.0296 14.9925 11.0596 15.3939C10.0895 15.7953 9.04981 16.0013 8 16C3.58187 16 0 12.4181 0 8C0 3.58187 3.58187 0 8 0C10.1504 0 12.168 0.853333 13.6581 2.344Z" fill="#9E9E9E"/>
</svg>
