<svg width="16" height="16" viewBox="0 0 16 16" fill="none" xmlns="http://www.w3.org/2000/svg">
<path d="M0.811093 4.20724C0.811093 4.20724 2.26727 1.95896 4.57141 0.752544C6.87554 -0.453819 9.71428 -0.106525 11.576 1.06328C13.4377 2.23315 14.0645 3.22016 14.0645 3.22016L15.6681 2.30625C15.6681 2.30625 16 2.14177 16 2.52561V8.26519C16 8.26519 16 8.777 15.6128 8.59417C15.2872 8.44045 11.7653 6.43664 10.6555 5.80449C10.0461 5.5325 10.5815 5.31154 10.5815 5.31154L12.129 4.42657C12.129 4.42657 11.2463 3.32049 9.95435 2.73471C8.57142 2.0138 7.27672 1.92831 5.69082 2.52737C4.65666 2.91792 3.43912 3.91804 2.56216 5.39534L0.811093 4.20724ZM15.1889 11.7928C15.1889 11.7928 13.7327 14.0411 11.4286 15.2474C9.12442 16.4538 6.28573 16.1066 4.42399 14.9368C2.56217 13.7668 1.93551 12.7798 1.93551 12.7798L0.331803 13.6937C0.331803 13.6937 0 13.8583 0 13.4743V7.73481C0 7.73481 0 7.22305 0.387055 7.40579C0.712746 7.5596 4.23469 9.56332 5.3445 10.1955C5.95395 10.4675 5.41852 10.6884 5.41852 10.6884L3.871 11.5734C3.871 11.5734 4.75373 12.6795 6.04567 13.2653C7.42854 13.9861 8.7232 14.0717 10.3092 13.4726C11.3433 13.082 12.5608 12.082 13.4377 10.6046L15.1889 11.7928Z" fill="#9E9E9E"/>
</svg>
