<svg width="16" height="15" viewBox="0 0 16 15" fill="none" xmlns="http://www.w3.org/2000/svg">
<path d="M2.23104 10.1452L7.23979 12.342C7.54294 12.4704 7.68599 12.5571 7.98914 12.5571C8.24665 12.5581 8.49988 12.4926 8.72317 12.367C8.7512 12.3484 8.78083 12.3323 8.81173 12.3187L13.5412 10.3719C13.6885 10.3128 13.8537 10.3128 14.001 10.3719L15.6632 11.0402C16.0634 11.2019 16.0668 11.6853 15.67 11.8503L8.23779 14.954C8.16278 14.9849 8.08211 15.0006 8.00071 15C7.91931 14.9994 7.83889 14.9826 7.76434 14.9506L0.306566 11.7253C-0.0851413 11.5536 -0.0783289 11.0769 0.320191 10.9169L2.23104 10.1452ZM2.00453 6.36312C2.14916 6.30523 2.31122 6.30523 2.45585 6.36312L7.36071 8.32832L7.42372 8.34832C7.87293 8.46964 8.34837 8.46153 8.79299 8.32498L13.5395 6.36646C13.6864 6.30629 13.8515 6.3051 13.9993 6.36312L15.6802 7.04152C16.077 7.20154 16.0856 7.67992 15.6939 7.84827L8.23949 11.0753C8.16408 11.1077 8.0826 11.1245 8.00021 11.1245C7.91783 11.1245 7.83634 11.1077 7.76093 11.0753L0.306566 7.84994C-0.0851413 7.67992 -0.0783289 7.20321 0.320191 7.04319L2.00453 6.36312ZM7.76604 0.0458384C7.83994 0.0155812 7.91925 0 7.99936 0C8.07947 0 8.15878 0.0155812 8.23268 0.0458384L15.7041 3.16614C16.0958 3.32949 16.0992 3.80121 15.7109 3.96956L8.23949 7.20321C8.16408 7.23567 8.0826 7.25243 8.00021 7.25243C7.91783 7.25243 7.83634 7.23567 7.76093 7.20321L0.287832 3.96789C-0.0987659 3.80121 -0.0953596 3.32783 0.294645 3.16448L7.76604 0.0458384Z" fill="#9E9E9E"/>
</svg>
