<svg width="15" height="15" viewBox="0 0 15 15" fill="none" xmlns="http://www.w3.org/2000/svg">
<path d="M15 7.5C15 11.6422 11.6422 15 7.5 15C3.35782 15 0 11.6422 0 7.5C0 3.35783 3.35782 0 7.5 0C11.6422 0 15 3.35783 15 7.5Z" fill="#F7931A"/>
<path d="M9.321 9.69195C9.29041 9.7958 9.23951 9.89254 9.17125 9.97657C9.10299 10.0606 9.01873 10.1303 8.92335 10.1815C8.82829 10.2333 8.72388 10.2657 8.61619 10.2769C8.5085 10.2881 8.39966 10.2778 8.29598 10.2466L6.1839 9.61755L6.65445 8.03782L8.76638 8.66693C9.20183 8.7966 9.45075 9.25642 9.321 9.69195ZM10.0334 6.45458C10.0851 6.54968 10.1175 6.65409 10.1287 6.76179C10.1398 6.86949 10.1295 6.97833 10.0984 7.08203C9.96863 7.5174 9.50858 7.7661 9.07335 7.63665L6.96128 7.00762L7.43167 5.4279L9.54375 6.05693C9.6476 6.08754 9.74434 6.13845 9.82838 6.20671C9.91242 6.27496 9.98209 6.35921 10.0334 6.45458ZM10.9788 5.94308C10.7374 5.4969 10.3367 5.1714 9.85058 5.02665L9.57113 4.94347L9.96233 3.62993L8.9586 3.33098L8.5674 4.64453L7.71045 4.3893L8.10173 3.07575L6.88718 2.71403L6.51008 3.98018L5.32298 3.62663L4.98795 4.75163L6.17505 5.10525L4.95547 9.2001L3.76838 8.84655L3.43335 9.97162L4.62037 10.3251L4.30215 11.3938L5.51663 11.7555L5.84903 10.6394L6.708 10.8952L6.3756 12.0114L7.37528 12.3091L7.70768 11.193L7.98908 11.2768C8.16584 11.3296 8.34932 11.3565 8.5338 11.3567C8.84505 11.3567 9.15338 11.2793 9.43485 11.127C9.88103 10.8856 10.2065 10.4849 10.3513 9.9987C10.5035 9.48727 10.4284 8.9619 10.1862 8.52945C10.6259 8.30002 10.9762 7.9005 11.1286 7.38885C11.2734 6.90263 11.2202 6.38917 10.9788 5.94308Z" fill="white"/>
</svg>
