<svg width="12" height="12" viewBox="0 0 12 12" fill="none" xmlns="http://www.w3.org/2000/svg">
<path d="M4.8 4.85714H7.2V7.2381H4.8V4.85714ZM2.4 7.2381H4.8V9.61905H2.4V7.2381ZM6.29444e-07 9.61905H2.4V12H6.29444e-07V9.61905ZM7.2 7.2381H9.6V9.61905H7.2V7.2381ZM9.6 9.61905H12V12H9.6V9.61905Z" fill="#B9B9B9"/>
<path d="M7.2 7.14286H4.8V4.76191L7.2 4.76191V7.14286ZM9.6 4.76191H7.2L7.2 2.38095L9.6 2.38095V4.76191ZM12 2.38095L9.6 2.38095V2.0815e-07L12 0V2.38095ZM4.8 4.76191H2.4V2.38095L4.8 2.38095V4.76191ZM2.4 2.38095L2.09815e-07 2.38095L0 1.04075e-06L2.4 8.32598e-07L2.4 2.38095Z" fill="#B9B9B9"/>
</svg>
