<svg width="101" height="34" viewBox="0 0 101 34" fill="none" xmlns="http://www.w3.org/2000/svg">
<path d="M12 10.8V12H1.2V10.8H0V1.2H1.2V0H4.8H12V1.2H13.2V4.8H8.4V2.4H4.8V9.6H8.4V7.2H12H13.2V10.8H12Z" fill="#CDCDCD"/>
<path d="M26.3906 10.8V12H15.5906V10.8H14.3906V1.2H15.5906V0H26.3906V1.2H27.5906V10.8H26.3906ZM22.7906 7.2V4.8V2.4H19.1906V9.6H22.7906V7.2Z" fill="#CDCDCD"/>
<path d="M40.7812 10.8V12H29.9813V10.8H28.7812V1.2H29.9813V0H40.7812V1.2H41.9813V10.8H40.7812ZM37.1813 7.2V4.8V2.4H33.5812V9.6H37.1813V7.2Z" fill="#CDCDCD"/>
<path d="M47.9719 6V12H43.1719V0H47.9719V1.2H49.1719V2.4H50.3719V3.6H51.5719V2.4H52.7719V1.2H53.9719V0H58.7719V12H53.9719V6H52.7719V7.2H51.5719V8.4H50.3719V7.2H49.1719V6H47.9719Z" fill="#CDCDCD"/>
<path d="M59.9766 2.4V0H71.9766V2.4H68.3766V9.6H71.9766V12H59.9766V9.6H63.5766V2.4H59.9766Z" fill="#CDCDCD"/>
<path d="M77.9719 6V12H73.1719V0H77.9719V1.2H79.1719V2.4H80.3719V3.6H81.5719V0H86.3719V12H81.5719V8.4H80.3719V7.2H79.1719V6H77.9719Z" fill="#CDCDCD"/>
<path d="M99.5625 10.8V12H88.7625V10.8H87.5625V1.2H88.7625V0H100.762V2.4H92.3625V9.6H95.9625V7.2H93.5625V4.8H99.5625V6H100.762V10.8H99.5625Z" fill="#CDCDCD"/>
<path d="M16.7812 34V31.6H25.1813V29.2H17.9813V28H16.7812V23.2H17.9813V22H29.9813V24.4H21.5812V26.8H25.1813H28.7812V28H29.9813V32.8H28.7812V34H16.7812Z" fill="#CDCDCD"/>
<path d="M43.1719 32.8V34H32.3719V32.8H31.1719V23.2H32.3719V22H43.1719V23.2H44.3719V32.8H43.1719ZM39.5719 29.2V26.8V24.4H35.9719V31.6H39.5719V29.2Z" fill="#CDCDCD"/>
<path d="M57.5625 32.8V34H46.7625V32.8H45.5625V23.2H46.7625V22H57.5625V23.2H58.7625V32.8H57.5625ZM53.9625 29.2V26.8V24.4H50.3625V31.6H53.9625V29.2Z" fill="#CDCDCD"/>
<path d="M64.7531 28V34H59.9531V22H64.7531V23.2H65.9531V24.4H67.1531V25.6H68.3531V22H73.1531V34H68.3531V30.4H67.1531V29.2H65.9531V28H64.7531Z" fill="#CDCDCD"/>
</svg>
