<svg width="39" height="39" viewBox="0 0 39 39" fill="none" xmlns="http://www.w3.org/2000/svg">
<path d="M13.1075 20.5473C13.1075 22.0779 14.1224 23.3241 15.3542 23.3241C16.6056 23.3241 17.601 22.0779 17.601 20.5472C17.6207 19.0276 16.6155 17.7704 15.3542 17.7704C14.1027 17.7704 13.1075 19.0167 13.1075 20.5473Z" fill="#0F0F0F"/>
<path d="M21.4145 20.5473C21.4145 22.0779 22.4295 23.3241 23.6612 23.3241C24.9226 23.3241 25.908 22.0779 25.908 20.5472C25.9277 19.0276 24.9226 17.7704 23.6612 17.7704C22.4098 17.7704 21.4145 19.0167 21.4145 20.5473Z" fill="#0F0F0F"/>
<path fill-rule="evenodd" clip-rule="evenodd" d="M2 0C0.895431 0 0 0.89543 0 2V37C0 38.1046 0.89543 39 2 39H37C38.1046 39 39 38.1046 39 37V2C39 0.895431 38.1046 0 37 0H2ZM28.1636 10.7408C28.1777 10.7471 28.1892 10.7588 28.1961 10.7736C31.0193 15.35 32.4137 20.5123 31.8923 26.4552C31.8913 26.4678 31.8879 26.4799 31.8822 26.4908C31.8766 26.5017 31.869 26.5112 31.8598 26.5186C29.9702 28.0615 27.8556 29.2376 25.6071 29.9961C25.5912 30.0015 25.5742 30.0012 25.5585 29.9953C25.5427 29.9894 25.5291 29.9782 25.5194 29.9633C25.0438 29.236 24.6173 28.4712 24.2433 27.6751C24.2382 27.6641 24.2352 27.652 24.2346 27.6397C24.2339 27.6273 24.2357 27.615 24.2397 27.6034C24.2437 27.5918 24.2499 27.5814 24.2579 27.5726C24.2658 27.5639 24.2753 27.5571 24.2858 27.5527C24.9611 27.2728 25.6138 26.9304 26.2369 26.5294C26.2482 26.522 26.2577 26.5116 26.2645 26.4992C26.2712 26.4867 26.2752 26.4727 26.2758 26.4582C26.2765 26.4437 26.2739 26.4292 26.2684 26.4161C26.2628 26.403 26.2543 26.3916 26.2438 26.3829C26.1119 26.2745 25.9824 26.1626 25.8555 26.0472C25.8442 26.0371 25.8306 26.0307 25.8161 26.0287C25.8016 26.0268 25.7869 26.0294 25.7737 26.0363C21.7308 28.0949 17.3013 28.0949 13.2099 26.0363C13.1968 26.0298 13.1823 26.0275 13.168 26.0296C13.1537 26.0318 13.1403 26.0382 13.1291 26.0483C13.0024 26.1631 12.8733 26.2747 12.7419 26.3829C12.7314 26.3917 12.723 26.4031 12.7175 26.4163C12.712 26.4295 12.7096 26.444 12.7103 26.4585C12.7111 26.4729 12.7151 26.487 12.722 26.4994C12.7288 26.5117 12.7384 26.5221 12.7497 26.5294C13.3742 26.9271 14.0263 27.2696 14.6999 27.5538C14.7104 27.558 14.7199 27.5646 14.7279 27.5733C14.7359 27.5819 14.7422 27.5922 14.7463 27.6037C14.7504 27.6152 14.7522 27.6274 14.7517 27.6397C14.7512 27.6521 14.7483 27.6641 14.7432 27.6751C14.3753 28.4757 13.9482 29.2414 13.4661 29.9646C13.4562 29.9791 13.4425 29.9899 13.4268 29.9956C13.4111 30.0012 13.3942 30.0015 13.3784 29.9962C11.134 29.2351 9.02306 28.0592 7.13584 26.5186C7.12677 26.5108 7.11922 26.5011 7.11363 26.49C7.10805 26.479 7.10454 26.4668 7.10331 26.4542C6.66777 21.3137 7.55561 16.1087 10.7966 10.7725C10.8046 10.7584 10.8163 10.7473 10.8302 10.7408C12.4508 9.92021 14.1614 9.33551 15.9189 9.00143C15.9349 8.99866 15.9512 9.00125 15.9658 9.00886C15.9804 9.01647 15.9926 9.02875 16.0007 9.04409C16.239 9.5088 16.4538 9.98766 16.6442 10.4785C18.5385 10.1614 20.4654 10.1614 22.3597 10.4785C22.5488 9.9889 22.7602 9.51017 22.9932 9.04409C23.001 9.0284 23.0131 9.01584 23.0278 9.00818C23.0425 9.00052 23.059 8.99816 23.0749 9.00143C24.8322 9.33621 26.5427 9.92087 28.1636 10.7408Z" fill="#0F0F0F"/>
</svg>
