<svg width="39" height="39" viewBox="0 0 39 39" fill="none" xmlns="http://www.w3.org/2000/svg">
<path fill-rule="evenodd" clip-rule="evenodd" d="M2 0C0.895386 0 0 0.895386 0 2V37C0 38.1046 0.895386 39 2 39H37C38.1046 39 39 38.1046 39 37V2C39 0.895386 38.1046 0 37 0H2ZM16.1851 23.5159L15.7812 29.6691C16.3727 29.6691 16.6467 29.3927 16.9785 29.0581L19.8492 26.2506L25.8214 30.7018C26.9177 31.3127 27.7112 30.9928 27.9852 29.6691L31.9089 11.0352C32.3129 9.40588 31.3031 8.66406 30.25 9.14404L7.2124 18.1046C5.64001 18.7448 5.65442 19.6321 6.92395 19.9957L12.8384 21.8867L26.5138 13.1735C27.163 12.7806 27.7544 12.9989 27.2639 13.4498L16.1851 23.5159Z" fill="#0F0F0F"/>
</svg>
