<svg width="39" height="39" viewBox="0 0 39 39" fill="none" xmlns="http://www.w3.org/2000/svg">
<path d="M37.44 0H1.56C0.697125 0 0 0.697125 0 1.56V37.44C0 38.3029 0.697125 39 1.56 39H37.44C38.3029 39 39 38.3029 39 37.44V1.56C39 0.697125 38.3029 0 37.44 0ZM29.9959 14.1229C30.0105 14.352 30.0105 14.5909 30.0105 14.8249C30.0105 21.9814 24.5602 30.225 14.6006 30.225C11.5294 30.225 8.68237 29.3329 6.28387 27.7972C6.72262 27.846 7.14188 27.8655 7.59038 27.8655C10.1254 27.8655 12.4556 27.0075 14.313 25.5547C11.934 25.506 9.93525 23.946 9.25275 21.801C10.0864 21.9229 10.8371 21.9229 11.6951 21.7035C9.21863 21.2014 7.36125 19.0222 7.36125 16.3897V16.3215C8.07788 16.7261 8.92125 16.9747 9.80363 17.0089C8.29725 16.0046 7.3905 14.313 7.3905 12.5044C7.3905 11.4952 7.65375 10.5739 8.12663 9.77437C10.7933 13.0601 14.8005 15.2051 19.2904 15.4342C18.525 11.7536 21.2745 8.775 24.5798 8.775C26.1397 8.775 27.5437 9.42825 28.5334 10.4812C29.757 10.2521 30.927 9.79387 31.9702 9.17962C31.5656 10.4325 30.7174 11.4904 29.5912 12.1582C30.6832 12.0412 31.7362 11.739 32.7113 11.3149C31.9751 12.3971 31.0537 13.3575 29.9959 14.1229Z" fill="#0F0F0F"/>
</svg>
